<mxfile host="app.diagrams.net" agent="Mozilla/5.0 (Windows NT 10.0; Win64; x64) AppleWebKit/537.36 (KHTML, like Gecko) Chrome/131.0.0.0 Safari/537.36" version="25.0.1" pages="2">
  <diagram id="yPxyJZ8AM_hMuL3Unpa9" name="simple gitflow">
    <mxGraphModel dx="989" dy="592" grid="1" gridSize="10" guides="1" tooltips="1" connect="1" arrows="1" fold="1" page="1" pageScale="1" pageWidth="1100" pageHeight="850" math="0" shadow="0">
      <root>
        <mxCell id="0" />
        <mxCell id="1" parent="0" />
        <UserObject label="Example diagram for a workflow with a simpler branching model:" link="https://nvie.com/posts/a-successful-git-branching-model/" id="9hBKPDzoitwpIBdzFDQ7-6">
          <mxCell style="text;whiteSpace=wrap;html=1;fontStyle=1;fontSize=17;" parent="1" vertex="1">
            <mxGeometry x="90" y="60" width="542.25" height="30" as="geometry" />
          </mxCell>
        </UserObject>
        <UserObject label="&lt;u&gt;&lt;font style=&quot;font-size: 11px;&quot; color=&quot;#0066cc&quot;&gt;https://gist.github.com/digitaljhelms/4287848&lt;/font&gt;&lt;/u&gt;" linkTarget="_blank" link="https://gist.github.com/digitaljhelms/4287848" id="9hBKPDzoitwpIBdzFDQ7-8">
          <mxCell style="text;whiteSpace=wrap;html=1;rounded=0;" parent="1" vertex="1">
            <mxGeometry x="182" y="90" width="298" height="20" as="geometry" />
          </mxCell>
        </UserObject>
        <UserObject label="Pretty much this:" id="9hBKPDzoitwpIBdzFDQ7-10">
          <mxCell style="text;whiteSpace=wrap;html=1;" parent="1" vertex="1">
            <mxGeometry x="91.5" y="90" width="98.5" height="20" as="geometry" />
          </mxCell>
        </UserObject>
        <mxCell id="9hBKPDzoitwpIBdzFDQ7-23" value="" style="edgeStyle=orthogonalEdgeStyle;rounded=0;html=1;jettySize=auto;orthogonalLoop=1;plain-blue;endArrow=none;endFill=0;strokeWidth=4;strokeColor=#000000;" parent="1" source="9hBKPDzoitwpIBdzFDQ7-25" target="9hBKPDzoitwpIBdzFDQ7-26" edge="1">
          <mxGeometry x="304.5" y="180" as="geometry" />
        </mxCell>
        <mxCell id="9hBKPDzoitwpIBdzFDQ7-24" style="edgeStyle=orthogonalEdgeStyle;curved=1;rounded=0;html=1;exitX=1;exitY=0.5;exitPerimeter=0;entryX=0;entryY=0.5;entryPerimeter=0;endArrow=none;endFill=0;jettySize=auto;orthogonalLoop=1;strokeWidth=4;fontSize=15;" parent="1" source="9hBKPDzoitwpIBdzFDQ7-25" target="9hBKPDzoitwpIBdzFDQ7-30" edge="1">
          <mxGeometry relative="1" as="geometry" />
        </mxCell>
        <mxCell id="9hBKPDzoitwpIBdzFDQ7-25" value="" style="verticalLabelPosition=bottom;verticalAlign=top;html=1;strokeWidth=4;shape=mxgraph.flowchart.on-page_reference;plain-blue;gradientColor=none;fillColor=#B5E3Fe;strokeColor=#000000;" parent="1" vertex="1">
          <mxGeometry x="274.5" y="345" width="30" height="30" as="geometry" />
        </mxCell>
        <mxCell id="9hBKPDzoitwpIBdzFDQ7-41" value="" style="edgeStyle=orthogonalEdgeStyle;curved=1;rounded=0;orthogonalLoop=1;jettySize=auto;html=1;endArrow=none;endFill=0;strokeWidth=4;fontFamily=Courier New;fontSize=16;" parent="1" source="9hBKPDzoitwpIBdzFDQ7-26" target="9hBKPDzoitwpIBdzFDQ7-40" edge="1">
          <mxGeometry relative="1" as="geometry" />
        </mxCell>
        <mxCell id="9hBKPDzoitwpIBdzFDQ7-26" value="" style="verticalLabelPosition=bottom;verticalAlign=top;html=1;strokeWidth=4;shape=mxgraph.flowchart.on-page_reference;plain-blue;gradientColor=none;strokeColor=#000000;" parent="1" vertex="1">
          <mxGeometry x="564.5" y="345" width="30" height="30" as="geometry" />
        </mxCell>
        <mxCell id="9hBKPDzoitwpIBdzFDQ7-52" value="" style="edgeStyle=orthogonalEdgeStyle;curved=1;rounded=0;orthogonalLoop=1;jettySize=auto;html=1;endArrow=none;endFill=0;strokeWidth=4;fontFamily=Courier New;fontSize=16;entryX=0;entryY=0.5;entryDx=0;entryDy=0;entryPerimeter=0;exitX=1;exitY=0.5;exitDx=0;exitDy=0;exitPerimeter=0;" parent="1" source="punJEcE57REo3TfnCgo--24" target="9hBKPDzoitwpIBdzFDQ7-50" edge="1">
          <mxGeometry relative="1" as="geometry">
            <mxPoint x="573.5" y="456" as="targetPoint" />
          </mxGeometry>
        </mxCell>
        <mxCell id="9hBKPDzoitwpIBdzFDQ7-40" value="" style="verticalLabelPosition=bottom;verticalAlign=top;html=1;strokeWidth=4;shape=mxgraph.flowchart.on-page_reference;plain-blue;gradientColor=none;strokeColor=#000000;" parent="1" vertex="1">
          <mxGeometry x="813" y="345" width="30" height="30" as="geometry" />
        </mxCell>
        <mxCell id="9hBKPDzoitwpIBdzFDQ7-56" value="" style="edgeStyle=orthogonalEdgeStyle;curved=1;rounded=0;orthogonalLoop=1;jettySize=auto;html=1;endArrow=none;endFill=0;strokeWidth=4;fontFamily=Courier New;fontSize=16;" parent="1" source="9hBKPDzoitwpIBdzFDQ7-42" edge="1">
          <mxGeometry relative="1" as="geometry">
            <mxPoint x="871.2499999999998" y="359.9999999999999" as="targetPoint" />
          </mxGeometry>
        </mxCell>
        <mxCell id="9hBKPDzoitwpIBdzFDQ7-27" value="" style="edgeStyle=orthogonalEdgeStyle;rounded=0;html=1;jettySize=auto;orthogonalLoop=1;strokeWidth=4;endArrow=none;endFill=0;" parent="1" target="9hBKPDzoitwpIBdzFDQ7-25" edge="1">
          <mxGeometry x="204.5" y="180" as="geometry">
            <mxPoint x="160" y="360" as="sourcePoint" />
          </mxGeometry>
        </mxCell>
        <mxCell id="9hBKPDzoitwpIBdzFDQ7-28" value="production" style="text;html=1;strokeColor=none;fillColor=none;align=left;verticalAlign=middle;whiteSpace=wrap;overflow=hidden;fontSize=14;fontStyle=1;fontFamily=Courier New;" parent="1" vertex="1">
          <mxGeometry x="70" y="190" width="88.13" height="20" as="geometry" />
        </mxCell>
        <mxCell id="9hBKPDzoitwpIBdzFDQ7-29" style="edgeStyle=orthogonalEdgeStyle;curved=1;rounded=0;html=1;exitX=1;exitY=0.5;exitPerimeter=0;entryX=0;entryY=0.5;entryPerimeter=0;endArrow=none;endFill=0;jettySize=auto;orthogonalLoop=1;strokeWidth=4;fontSize=15;" parent="1" source="9hBKPDzoitwpIBdzFDQ7-30" target="9hBKPDzoitwpIBdzFDQ7-32" edge="1">
          <mxGeometry relative="1" as="geometry" />
        </mxCell>
        <mxCell id="9hBKPDzoitwpIBdzFDQ7-30" value="" style="verticalLabelPosition=bottom;verticalAlign=top;html=1;strokeWidth=4;shape=mxgraph.flowchart.on-page_reference;plain-purple;gradientColor=none;strokeColor=#000000;" parent="1" vertex="1">
          <mxGeometry x="347.5" y="425" width="30" height="30" as="geometry" />
        </mxCell>
        <mxCell id="9hBKPDzoitwpIBdzFDQ7-31" style="edgeStyle=orthogonalEdgeStyle;curved=1;rounded=0;html=1;exitX=1;exitY=0.5;exitPerimeter=0;endArrow=none;endFill=0;jettySize=auto;orthogonalLoop=1;strokeWidth=4;fontSize=15;entryX=0;entryY=0;entryDx=0;entryDy=10;entryPerimeter=0;" parent="1" source="9hBKPDzoitwpIBdzFDQ7-32" target="fWsyDxW2gIVbsx2lcUwx-1" edge="1">
          <mxGeometry relative="1" as="geometry">
            <mxPoint x="471" y="440" as="targetPoint" />
          </mxGeometry>
        </mxCell>
        <mxCell id="9hBKPDzoitwpIBdzFDQ7-32" value="" style="verticalLabelPosition=bottom;verticalAlign=top;html=1;strokeWidth=4;shape=mxgraph.flowchart.on-page_reference;plain-purple;gradientColor=none;strokeColor=#000000;" parent="1" vertex="1">
          <mxGeometry x="419.5" y="425" width="30" height="30" as="geometry" />
        </mxCell>
        <mxCell id="9hBKPDzoitwpIBdzFDQ7-33" style="edgeStyle=orthogonalEdgeStyle;curved=1;rounded=0;html=1;entryX=0;entryY=0.5;entryPerimeter=0;endArrow=none;endFill=0;jettySize=auto;orthogonalLoop=1;strokeWidth=4;fontSize=15;exitX=0;exitY=0;exitDx=40;exitDy=10;exitPerimeter=0;" parent="1" source="fWsyDxW2gIVbsx2lcUwx-1" target="9hBKPDzoitwpIBdzFDQ7-26" edge="1">
          <mxGeometry relative="1" as="geometry">
            <mxPoint x="540" y="440" as="sourcePoint" />
          </mxGeometry>
        </mxCell>
        <mxCell id="9hBKPDzoitwpIBdzFDQ7-35" value="US45-Add-Judge-Report" style="text;html=1;strokeColor=none;fillColor=none;align=left;verticalAlign=middle;whiteSpace=wrap;overflow=hidden;fontSize=14;fontStyle=1;fontFamily=Courier New;" parent="1" vertex="1">
          <mxGeometry x="70" y="427" width="186.25" height="20" as="geometry" />
        </mxCell>
        <mxCell id="9hBKPDzoitwpIBdzFDQ7-37" value="The main branch&lt;br&gt;" style="text;html=1;strokeColor=none;fillColor=none;align=left;verticalAlign=middle;whiteSpace=wrap;overflow=hidden;fontSize=14;fontStyle=0;fontColor=#009900;" parent="1" vertex="1">
          <mxGeometry x="72.25" y="370" width="132.25" height="17" as="geometry" />
        </mxCell>
        <mxCell id="9hBKPDzoitwpIBdzFDQ7-38" value="Your feature branch" style="text;html=1;strokeColor=none;fillColor=none;align=left;verticalAlign=middle;whiteSpace=wrap;overflow=hidden;fontSize=14;fontStyle=0;fontColor=#009900;" parent="1" vertex="1">
          <mxGeometry x="72.25" y="447" width="202.25" height="20" as="geometry" />
        </mxCell>
        <mxCell id="9hBKPDzoitwpIBdzFDQ7-39" value="Tag: 1.0.0" style="text;html=1;strokeColor=none;fillColor=none;align=center;verticalAlign=middle;whiteSpace=wrap;overflow=hidden;fontSize=14;" parent="1" vertex="1">
          <mxGeometry x="320" y="160" width="70" height="20" as="geometry" />
        </mxCell>
        <mxCell id="9hBKPDzoitwpIBdzFDQ7-44" value="Tag: 1.0.1" style="text;html=1;strokeColor=none;fillColor=none;align=center;verticalAlign=middle;whiteSpace=wrap;overflow=hidden;fontSize=14;" parent="1" vertex="1">
          <mxGeometry x="787.5" y="160" width="70" height="20" as="geometry" />
        </mxCell>
        <mxCell id="9hBKPDzoitwpIBdzFDQ7-50" value="" style="verticalLabelPosition=bottom;verticalAlign=top;html=1;strokeWidth=4;shape=mxgraph.flowchart.on-page_reference;plain-blue;gradientColor=#EA6B66;strokeColor=#B85450;fillColor=#F8CECC;" parent="1" vertex="1">
          <mxGeometry x="643.5" y="237" width="30" height="30" as="geometry" />
        </mxCell>
        <mxCell id="9hBKPDzoitwpIBdzFDQ7-58" value="Hotfix Branch" style="text;html=1;strokeColor=none;fillColor=none;align=center;verticalAlign=middle;whiteSpace=wrap;overflow=hidden;" parent="1" vertex="1">
          <mxGeometry x="618.5" y="260" width="80" height="30" as="geometry" />
        </mxCell>
        <mxCell id="punJEcE57REo3TfnCgo--3" value="" style="verticalLabelPosition=bottom;verticalAlign=top;html=1;strokeWidth=4;shape=mxgraph.flowchart.on-page_reference;plain-purple;gradientColor=none;strokeColor=#000000;fillColor=#99FFCC;" vertex="1" parent="1">
          <mxGeometry x="346.13" y="185" width="30" height="30" as="geometry" />
        </mxCell>
        <mxCell id="punJEcE57REo3TfnCgo--7" style="edgeStyle=orthogonalEdgeStyle;curved=1;rounded=0;html=1;exitX=1;exitY=0.5;exitPerimeter=0;endArrow=none;endFill=0;jettySize=auto;orthogonalLoop=1;strokeWidth=4;fontSize=15;exitDx=0;exitDy=0;entryX=0;entryY=0.5;entryDx=0;entryDy=0;entryPerimeter=0;" edge="1" parent="1" source="9hBKPDzoitwpIBdzFDQ7-25" target="punJEcE57REo3TfnCgo--3">
          <mxGeometry relative="1" as="geometry">
            <mxPoint x="315" y="370" as="sourcePoint" />
            <mxPoint x="290" y="290" as="targetPoint" />
          </mxGeometry>
        </mxCell>
        <mxCell id="punJEcE57REo3TfnCgo--8" value="main" style="text;html=1;strokeColor=none;fillColor=none;align=left;verticalAlign=middle;whiteSpace=wrap;overflow=hidden;fontSize=14;fontStyle=1;fontFamily=Courier New;" vertex="1" parent="1">
          <mxGeometry x="70" y="350" width="38.13" height="20" as="geometry" />
        </mxCell>
        <mxCell id="punJEcE57REo3TfnCgo--9" value="" style="edgeStyle=orthogonalEdgeStyle;rounded=0;html=1;jettySize=auto;orthogonalLoop=1;strokeWidth=4;endArrow=none;endFill=0;entryX=0;entryY=0.5;entryDx=0;entryDy=0;entryPerimeter=0;" edge="1" parent="1" target="punJEcE57REo3TfnCgo--3">
          <mxGeometry x="204.5" y="180" as="geometry">
            <mxPoint x="159.5" y="199.5" as="sourcePoint" />
            <mxPoint x="320" y="200" as="targetPoint" />
            <Array as="points">
              <mxPoint x="346" y="200" />
            </Array>
          </mxGeometry>
        </mxCell>
        <mxCell id="punJEcE57REo3TfnCgo--19" style="edgeStyle=orthogonalEdgeStyle;rounded=0;orthogonalLoop=1;jettySize=auto;html=1;entryX=0;entryY=0.5;entryDx=0;entryDy=0;entryPerimeter=0;strokeWidth=4;endArrow=none;endFill=0;" edge="1" parent="1" target="punJEcE57REo3TfnCgo--11">
          <mxGeometry relative="1" as="geometry">
            <mxPoint x="379.5" y="490" as="sourcePoint" />
          </mxGeometry>
        </mxCell>
        <mxCell id="punJEcE57REo3TfnCgo--20" style="edgeStyle=orthogonalEdgeStyle;rounded=0;orthogonalLoop=1;jettySize=auto;html=1;entryX=0;entryY=0.5;entryDx=0;entryDy=0;entryPerimeter=0;strokeWidth=4;endArrow=none;endFill=0;" edge="1" parent="1" target="punJEcE57REo3TfnCgo--14">
          <mxGeometry relative="1" as="geometry">
            <mxPoint x="441" y="490" as="sourcePoint" />
          </mxGeometry>
        </mxCell>
        <mxCell id="punJEcE57REo3TfnCgo--21" style="edgeStyle=orthogonalEdgeStyle;rounded=0;orthogonalLoop=1;jettySize=auto;html=1;entryX=0;entryY=0.5;entryDx=0;entryDy=0;entryPerimeter=0;strokeWidth=4;endArrow=none;endFill=0;" edge="1" parent="1" target="punJEcE57REo3TfnCgo--15">
          <mxGeometry relative="1" as="geometry">
            <mxPoint x="503" y="490" as="sourcePoint" />
          </mxGeometry>
        </mxCell>
        <mxCell id="punJEcE57REo3TfnCgo--24" value="" style="verticalLabelPosition=bottom;verticalAlign=top;html=1;strokeWidth=4;shape=mxgraph.flowchart.on-page_reference;plain-purple;gradientColor=none;strokeColor=#000000;fillColor=#99FFCC;" vertex="1" parent="1">
          <mxGeometry x="571" y="185" width="30" height="30" as="geometry" />
        </mxCell>
        <mxCell id="punJEcE57REo3TfnCgo--25" value="" style="verticalLabelPosition=bottom;verticalAlign=top;html=1;strokeWidth=4;shape=mxgraph.flowchart.on-page_reference;plain-purple;gradientColor=none;strokeColor=#000000;fillColor=#99FFCC;" vertex="1" parent="1">
          <mxGeometry x="811" y="185" width="30" height="30" as="geometry" />
        </mxCell>
        <mxCell id="punJEcE57REo3TfnCgo--27" style="edgeStyle=orthogonalEdgeStyle;rounded=0;orthogonalLoop=1;jettySize=auto;html=1;entryX=0;entryY=0.5;entryDx=0;entryDy=0;entryPerimeter=0;strokeWidth=4;endArrow=none;endFill=0;" edge="1" parent="1" source="punJEcE57REo3TfnCgo--3" target="punJEcE57REo3TfnCgo--24">
          <mxGeometry relative="1" as="geometry" />
        </mxCell>
        <mxCell id="punJEcE57REo3TfnCgo--28" style="edgeStyle=orthogonalEdgeStyle;rounded=0;orthogonalLoop=1;jettySize=auto;html=1;entryX=0;entryY=0.5;entryDx=0;entryDy=0;entryPerimeter=0;strokeWidth=4;endArrow=none;endFill=0;" edge="1" parent="1" source="punJEcE57REo3TfnCgo--24" target="punJEcE57REo3TfnCgo--25">
          <mxGeometry relative="1" as="geometry" />
        </mxCell>
        <mxCell id="fWsyDxW2gIVbsx2lcUwx-1" value="PR/CR" style="shape=callout;whiteSpace=wrap;html=1;perimeter=calloutPerimeter;strokeWidth=3;position2=0.25;size=20;position=0.4;base=14;fillColor=#e1d5e7;strokeColor=default;fontSize=10;" vertex="1" parent="1">
          <mxGeometry x="480" y="430" width="40" height="40" as="geometry" />
        </mxCell>
        <mxCell id="fWsyDxW2gIVbsx2lcUwx-3" value="PR/CR" style="shape=callout;whiteSpace=wrap;html=1;perimeter=calloutPerimeter;strokeWidth=3;position2=0.25;size=20;position=0.4;base=14;fillColor=#F8CECC;strokeColor=#B85450;align=center;verticalAlign=top;fontFamily=Helvetica;fontSize=10;fontColor=default;gradientColor=#EA6B66;spacing=0;" vertex="1" parent="1">
          <mxGeometry x="719" y="242" width="40" height="40" as="geometry" />
        </mxCell>
        <mxCell id="fWsyDxW2gIVbsx2lcUwx-4" style="edgeStyle=orthogonalEdgeStyle;rounded=0;orthogonalLoop=1;jettySize=auto;html=1;entryX=0;entryY=0;entryDx=0;entryDy=10;entryPerimeter=0;strokeColor=default;strokeWidth=4;align=center;verticalAlign=middle;fontFamily=Courier New;fontSize=16;fontColor=default;labelBackgroundColor=default;endArrow=none;endFill=0;curved=1;" edge="1" parent="1" source="9hBKPDzoitwpIBdzFDQ7-50" target="fWsyDxW2gIVbsx2lcUwx-3">
          <mxGeometry relative="1" as="geometry" />
        </mxCell>
        <mxCell id="fWsyDxW2gIVbsx2lcUwx-5" style="edgeStyle=orthogonalEdgeStyle;rounded=0;orthogonalLoop=1;jettySize=auto;html=1;entryX=0;entryY=0.5;entryDx=0;entryDy=0;entryPerimeter=0;strokeColor=default;strokeWidth=4;align=center;verticalAlign=middle;fontFamily=Courier New;fontSize=16;fontColor=default;labelBackgroundColor=default;endArrow=none;endFill=0;curved=1;exitX=0;exitY=0;exitDx=40;exitDy=10;exitPerimeter=0;" edge="1" parent="1" source="fWsyDxW2gIVbsx2lcUwx-3" target="punJEcE57REo3TfnCgo--25">
          <mxGeometry relative="1" as="geometry" />
        </mxCell>
        <mxCell id="fWsyDxW2gIVbsx2lcUwx-6" style="edgeStyle=orthogonalEdgeStyle;rounded=0;orthogonalLoop=1;jettySize=auto;html=1;exitX=0;exitY=0;exitDx=40;exitDy=10;exitPerimeter=0;entryX=0;entryY=0.5;entryDx=0;entryDy=0;entryPerimeter=0;strokeColor=default;strokeWidth=4;align=center;verticalAlign=middle;fontFamily=Courier New;fontSize=16;fontColor=default;labelBackgroundColor=default;endArrow=none;endFill=0;curved=1;" edge="1" parent="1" source="fWsyDxW2gIVbsx2lcUwx-3" target="9hBKPDzoitwpIBdzFDQ7-40">
          <mxGeometry relative="1" as="geometry" />
        </mxCell>
        <mxCell id="fWsyDxW2gIVbsx2lcUwx-7" value="hotfix" style="text;html=1;strokeColor=none;fillColor=none;align=left;verticalAlign=middle;whiteSpace=wrap;overflow=hidden;fontSize=14;fontStyle=1;fontFamily=Courier New;" vertex="1" parent="1">
          <mxGeometry x="70" y="242" width="54" height="20" as="geometry" />
        </mxCell>
      </root>
    </mxGraphModel>
  </diagram>
  <diagram name="Copy of simple gitflow" id="1rsL4NVPnncJF_OAr7ec">
    <mxGraphModel grid="1" page="1" gridSize="10" guides="1" tooltips="1" connect="1" arrows="1" fold="1" pageScale="1" pageWidth="1100" pageHeight="850" math="0" shadow="0">
      <root>
        <mxCell id="ZaVdI7RqOpJW4HI1exJX-0" />
        <mxCell id="ZaVdI7RqOpJW4HI1exJX-1" parent="ZaVdI7RqOpJW4HI1exJX-0" />
        <UserObject label="Example diagram for a workflow with a simpler branching model:" link="https://nvie.com/posts/a-successful-git-branching-model/" id="ZaVdI7RqOpJW4HI1exJX-2">
          <mxCell style="text;whiteSpace=wrap;html=1;fontStyle=1;fontSize=17;" vertex="1" parent="ZaVdI7RqOpJW4HI1exJX-1">
            <mxGeometry x="90" y="60" width="542.25" height="30" as="geometry" />
          </mxCell>
        </UserObject>
        <UserObject label="&lt;a href=&quot;https://gist.github.com/jbenet/ee6c9ac48068889b0912&quot;&gt;https://gist.github.com/jbenet/ee6c9ac48068889b0912&lt;/a&gt;" link="https://gist.github.com/jbenet/ee6c9ac48068889b0912" id="ZaVdI7RqOpJW4HI1exJX-3">
          <mxCell style="text;whiteSpace=wrap;html=1;" vertex="1" parent="ZaVdI7RqOpJW4HI1exJX-1">
            <mxGeometry x="124.25" y="90" width="298" height="20" as="geometry" />
          </mxCell>
        </UserObject>
        <UserObject label="See:" link="https://nvie.com/posts/a-successful-git-branching-model/" id="ZaVdI7RqOpJW4HI1exJX-4">
          <mxCell style="text;whiteSpace=wrap;html=1;" vertex="1" parent="ZaVdI7RqOpJW4HI1exJX-1">
            <mxGeometry x="91.5" y="90" width="32.75" height="20" as="geometry" />
          </mxCell>
        </UserObject>
        <mxCell id="ZaVdI7RqOpJW4HI1exJX-5" value="" style="edgeStyle=orthogonalEdgeStyle;rounded=0;html=1;jettySize=auto;orthogonalLoop=1;plain-blue;endArrow=none;endFill=0;strokeWidth=4;strokeColor=#000000;" edge="1" parent="ZaVdI7RqOpJW4HI1exJX-1" source="ZaVdI7RqOpJW4HI1exJX-7" target="ZaVdI7RqOpJW4HI1exJX-9">
          <mxGeometry x="304.5" y="180" as="geometry" />
        </mxCell>
        <mxCell id="ZaVdI7RqOpJW4HI1exJX-6" style="edgeStyle=orthogonalEdgeStyle;curved=1;rounded=0;html=1;exitX=1;exitY=0.5;exitPerimeter=0;entryX=0;entryY=0.5;entryPerimeter=0;endArrow=none;endFill=0;jettySize=auto;orthogonalLoop=1;strokeWidth=4;fontSize=15;" edge="1" parent="ZaVdI7RqOpJW4HI1exJX-1" source="ZaVdI7RqOpJW4HI1exJX-7" target="ZaVdI7RqOpJW4HI1exJX-19">
          <mxGeometry relative="1" as="geometry" />
        </mxCell>
        <mxCell id="ZaVdI7RqOpJW4HI1exJX-7" value="" style="verticalLabelPosition=bottom;verticalAlign=top;html=1;strokeWidth=4;shape=mxgraph.flowchart.on-page_reference;plain-blue;gradientColor=none;fillColor=#B5E3Fe;strokeColor=#000000;" vertex="1" parent="ZaVdI7RqOpJW4HI1exJX-1">
          <mxGeometry x="274.5" y="345" width="30" height="30" as="geometry" />
        </mxCell>
        <mxCell id="ZaVdI7RqOpJW4HI1exJX-8" value="" style="edgeStyle=orthogonalEdgeStyle;curved=1;rounded=0;orthogonalLoop=1;jettySize=auto;html=1;endArrow=none;endFill=0;strokeWidth=4;fontFamily=Courier New;fontSize=16;" edge="1" parent="ZaVdI7RqOpJW4HI1exJX-1" source="ZaVdI7RqOpJW4HI1exJX-9" target="ZaVdI7RqOpJW4HI1exJX-12">
          <mxGeometry relative="1" as="geometry" />
        </mxCell>
        <mxCell id="ZaVdI7RqOpJW4HI1exJX-9" value="" style="verticalLabelPosition=bottom;verticalAlign=top;html=1;strokeWidth=4;shape=mxgraph.flowchart.on-page_reference;plain-blue;gradientColor=none;strokeColor=#000000;" vertex="1" parent="ZaVdI7RqOpJW4HI1exJX-1">
          <mxGeometry x="564.5" y="345" width="30" height="30" as="geometry" />
        </mxCell>
        <mxCell id="ZaVdI7RqOpJW4HI1exJX-10" value="" style="edgeStyle=orthogonalEdgeStyle;curved=1;rounded=0;orthogonalLoop=1;jettySize=auto;html=1;endArrow=none;endFill=0;strokeWidth=4;fontFamily=Courier New;fontSize=16;" edge="1" parent="ZaVdI7RqOpJW4HI1exJX-1" source="ZaVdI7RqOpJW4HI1exJX-12" target="ZaVdI7RqOpJW4HI1exJX-14">
          <mxGeometry relative="1" as="geometry" />
        </mxCell>
        <mxCell id="ZaVdI7RqOpJW4HI1exJX-11" value="" style="edgeStyle=orthogonalEdgeStyle;curved=1;rounded=0;orthogonalLoop=1;jettySize=auto;html=1;endArrow=none;endFill=0;strokeWidth=4;fontFamily=Courier New;fontSize=16;entryX=0;entryY=0.5;entryDx=0;entryDy=0;entryPerimeter=0;exitX=1;exitY=0.5;exitDx=0;exitDy=0;exitPerimeter=0;" edge="1" parent="ZaVdI7RqOpJW4HI1exJX-1" source="ZaVdI7RqOpJW4HI1exJX-49" target="ZaVdI7RqOpJW4HI1exJX-32">
          <mxGeometry relative="1" as="geometry">
            <mxPoint x="689.5" y="455" as="targetPoint" />
          </mxGeometry>
        </mxCell>
        <mxCell id="ZaVdI7RqOpJW4HI1exJX-12" value="" style="verticalLabelPosition=bottom;verticalAlign=top;html=1;strokeWidth=4;shape=mxgraph.flowchart.on-page_reference;plain-blue;gradientColor=none;strokeColor=#000000;" vertex="1" parent="ZaVdI7RqOpJW4HI1exJX-1">
          <mxGeometry x="680" y="345" width="30" height="30" as="geometry" />
        </mxCell>
        <mxCell id="ZaVdI7RqOpJW4HI1exJX-13" value="" style="edgeStyle=orthogonalEdgeStyle;curved=1;rounded=0;orthogonalLoop=1;jettySize=auto;html=1;endArrow=none;endFill=0;strokeWidth=4;fontFamily=Courier New;fontSize=16;" edge="1" parent="ZaVdI7RqOpJW4HI1exJX-1" source="ZaVdI7RqOpJW4HI1exJX-14" target="ZaVdI7RqOpJW4HI1exJX-15">
          <mxGeometry relative="1" as="geometry" />
        </mxCell>
        <mxCell id="ZaVdI7RqOpJW4HI1exJX-14" value="" style="verticalLabelPosition=bottom;verticalAlign=top;html=1;strokeWidth=4;shape=mxgraph.flowchart.on-page_reference;plain-blue;gradientColor=none;strokeColor=#000000;" vertex="1" parent="ZaVdI7RqOpJW4HI1exJX-1">
          <mxGeometry x="779" y="345" width="30" height="30" as="geometry" />
        </mxCell>
        <mxCell id="ZaVdI7RqOpJW4HI1exJX-15" value="" style="verticalLabelPosition=bottom;verticalAlign=top;html=1;strokeWidth=4;shape=mxgraph.flowchart.on-page_reference;plain-blue;gradientColor=none;strokeColor=#000000;" vertex="1" parent="ZaVdI7RqOpJW4HI1exJX-1">
          <mxGeometry x="871.25" y="345" width="30" height="30" as="geometry" />
        </mxCell>
        <mxCell id="ZaVdI7RqOpJW4HI1exJX-16" value="" style="edgeStyle=orthogonalEdgeStyle;rounded=0;html=1;jettySize=auto;orthogonalLoop=1;strokeWidth=4;endArrow=none;endFill=0;" edge="1" parent="ZaVdI7RqOpJW4HI1exJX-1" target="ZaVdI7RqOpJW4HI1exJX-7">
          <mxGeometry x="204.5" y="180" as="geometry">
            <mxPoint x="160" y="360" as="sourcePoint" />
          </mxGeometry>
        </mxCell>
        <mxCell id="ZaVdI7RqOpJW4HI1exJX-17" value="release" style="text;html=1;strokeColor=none;fillColor=none;align=center;verticalAlign=middle;whiteSpace=wrap;overflow=hidden;fontSize=14;fontStyle=1;fontFamily=Courier New;" vertex="1" parent="ZaVdI7RqOpJW4HI1exJX-1">
          <mxGeometry x="92.25" y="189" width="67.75" height="20" as="geometry" />
        </mxCell>
        <mxCell id="ZaVdI7RqOpJW4HI1exJX-18" style="edgeStyle=orthogonalEdgeStyle;curved=1;rounded=0;html=1;exitX=1;exitY=0.5;exitPerimeter=0;entryX=0;entryY=0.5;entryPerimeter=0;endArrow=none;endFill=0;jettySize=auto;orthogonalLoop=1;strokeWidth=4;fontSize=15;" edge="1" parent="ZaVdI7RqOpJW4HI1exJX-1" source="ZaVdI7RqOpJW4HI1exJX-19" target="ZaVdI7RqOpJW4HI1exJX-21">
          <mxGeometry relative="1" as="geometry" />
        </mxCell>
        <mxCell id="ZaVdI7RqOpJW4HI1exJX-19" value="" style="verticalLabelPosition=bottom;verticalAlign=top;html=1;strokeWidth=4;shape=mxgraph.flowchart.on-page_reference;plain-purple;gradientColor=none;strokeColor=#000000;" vertex="1" parent="ZaVdI7RqOpJW4HI1exJX-1">
          <mxGeometry x="347.5" y="425" width="30" height="30" as="geometry" />
        </mxCell>
        <mxCell id="ZaVdI7RqOpJW4HI1exJX-20" style="edgeStyle=orthogonalEdgeStyle;curved=1;rounded=0;html=1;exitX=1;exitY=0.5;exitPerimeter=0;entryX=0;entryY=0.5;entryPerimeter=0;endArrow=none;endFill=0;jettySize=auto;orthogonalLoop=1;strokeWidth=4;fontSize=15;" edge="1" parent="ZaVdI7RqOpJW4HI1exJX-1" source="ZaVdI7RqOpJW4HI1exJX-21" target="ZaVdI7RqOpJW4HI1exJX-23">
          <mxGeometry relative="1" as="geometry" />
        </mxCell>
        <mxCell id="ZaVdI7RqOpJW4HI1exJX-21" value="" style="verticalLabelPosition=bottom;verticalAlign=top;html=1;strokeWidth=4;shape=mxgraph.flowchart.on-page_reference;plain-purple;gradientColor=none;strokeColor=#000000;" vertex="1" parent="ZaVdI7RqOpJW4HI1exJX-1">
          <mxGeometry x="419.5" y="425" width="30" height="30" as="geometry" />
        </mxCell>
        <mxCell id="ZaVdI7RqOpJW4HI1exJX-22" style="edgeStyle=orthogonalEdgeStyle;curved=1;rounded=0;html=1;exitX=1;exitY=0.5;exitPerimeter=0;entryX=0;entryY=0.5;entryPerimeter=0;endArrow=none;endFill=0;jettySize=auto;orthogonalLoop=1;strokeWidth=4;fontSize=15;" edge="1" parent="ZaVdI7RqOpJW4HI1exJX-1" source="ZaVdI7RqOpJW4HI1exJX-23" target="ZaVdI7RqOpJW4HI1exJX-9">
          <mxGeometry relative="1" as="geometry" />
        </mxCell>
        <mxCell id="ZaVdI7RqOpJW4HI1exJX-23" value="" style="verticalLabelPosition=bottom;verticalAlign=top;html=1;strokeWidth=4;shape=mxgraph.flowchart.on-page_reference;plain-purple;gradientColor=none;strokeColor=#000000;" vertex="1" parent="ZaVdI7RqOpJW4HI1exJX-1">
          <mxGeometry x="492.5" y="425" width="30" height="30" as="geometry" />
        </mxCell>
        <mxCell id="ZaVdI7RqOpJW4HI1exJX-24" value="JIRA-35--example-feature" style="text;html=1;strokeColor=none;fillColor=none;align=left;verticalAlign=middle;whiteSpace=wrap;overflow=hidden;fontSize=14;fontStyle=1;fontFamily=Courier New;" vertex="1" parent="ZaVdI7RqOpJW4HI1exJX-1">
          <mxGeometry x="97.5" y="430" width="240" height="20" as="geometry" />
        </mxCell>
        <mxCell id="ZaVdI7RqOpJW4HI1exJX-25" value="The main branch&lt;br&gt;" style="text;html=1;strokeColor=none;fillColor=none;align=left;verticalAlign=middle;whiteSpace=wrap;overflow=hidden;fontSize=14;fontStyle=0;fontColor=#009900;" vertex="1" parent="ZaVdI7RqOpJW4HI1exJX-1">
          <mxGeometry x="95.25" y="370" width="132.25" height="20" as="geometry" />
        </mxCell>
        <mxCell id="ZaVdI7RqOpJW4HI1exJX-26" value="Your feature branch" style="text;html=1;strokeColor=none;fillColor=none;align=left;verticalAlign=middle;whiteSpace=wrap;overflow=hidden;fontSize=14;fontStyle=0;fontColor=#009900;" vertex="1" parent="ZaVdI7RqOpJW4HI1exJX-1">
          <mxGeometry x="97.5" y="450" width="202.25" height="20" as="geometry" />
        </mxCell>
        <mxCell id="ZaVdI7RqOpJW4HI1exJX-27" value="Tag: 1.0.0" style="text;html=1;strokeColor=none;fillColor=none;align=center;verticalAlign=middle;whiteSpace=wrap;overflow=hidden;fontSize=14;" vertex="1" parent="ZaVdI7RqOpJW4HI1exJX-1">
          <mxGeometry x="250.38" y="320" width="70" height="20" as="geometry" />
        </mxCell>
        <mxCell id="ZaVdI7RqOpJW4HI1exJX-28" value="Tag: 1.1.0" style="text;html=1;strokeColor=none;fillColor=none;align=center;verticalAlign=middle;whiteSpace=wrap;overflow=hidden;fontSize=14;" vertex="1" parent="ZaVdI7RqOpJW4HI1exJX-1">
          <mxGeometry x="654.5" y="320" width="70" height="20" as="geometry" />
        </mxCell>
        <UserObject label="&lt;a href=&quot;https://www.endoflineblog.com/oneflow-a-git-branching-model-and-workflow&quot;&gt;https://www.endoflineblog.com/oneflow-a-git-branching-model-and-workflow&lt;/a&gt;" link="https://www.endoflineblog.com/oneflow-a-git-branching-model-and-workflow" id="ZaVdI7RqOpJW4HI1exJX-29">
          <mxCell style="text;whiteSpace=wrap;html=1;" vertex="1" parent="ZaVdI7RqOpJW4HI1exJX-1">
            <mxGeometry x="454.5" y="90" width="413.75" height="20" as="geometry" />
          </mxCell>
        </UserObject>
        <UserObject label="or" link="https://nvie.com/posts/a-successful-git-branching-model/" id="ZaVdI7RqOpJW4HI1exJX-30">
          <mxCell style="text;whiteSpace=wrap;html=1;" vertex="1" parent="ZaVdI7RqOpJW4HI1exJX-1">
            <mxGeometry x="430.62" y="90" width="11.63" height="20" as="geometry" />
          </mxCell>
        </UserObject>
        <mxCell id="ZaVdI7RqOpJW4HI1exJX-31" value="" style="edgeStyle=orthogonalEdgeStyle;curved=1;rounded=0;orthogonalLoop=1;jettySize=auto;html=1;endArrow=none;endFill=0;strokeWidth=4;fontFamily=Courier New;fontSize=16;entryX=0;entryY=0.5;entryDx=0;entryDy=0;entryPerimeter=0;" edge="1" parent="ZaVdI7RqOpJW4HI1exJX-1" source="ZaVdI7RqOpJW4HI1exJX-32" target="ZaVdI7RqOpJW4HI1exJX-50">
          <mxGeometry relative="1" as="geometry">
            <mxPoint x="902.25" y="440" as="targetPoint" />
          </mxGeometry>
        </mxCell>
        <mxCell id="ZaVdI7RqOpJW4HI1exJX-32" value="" style="verticalLabelPosition=bottom;verticalAlign=top;html=1;strokeWidth=4;shape=mxgraph.flowchart.on-page_reference;plain-blue;gradientColor=#EA6B66;strokeColor=#B85450;fillColor=#F8CECC;" vertex="1" parent="ZaVdI7RqOpJW4HI1exJX-1">
          <mxGeometry x="759.5" y="230" width="30" height="30" as="geometry" />
        </mxCell>
        <mxCell id="ZaVdI7RqOpJW4HI1exJX-33" value="Hotfix Commit" style="text;html=1;strokeColor=none;fillColor=none;align=center;verticalAlign=middle;whiteSpace=wrap;overflow=hidden;" vertex="1" parent="ZaVdI7RqOpJW4HI1exJX-1">
          <mxGeometry x="736.5" y="253" width="80" height="30" as="geometry" />
        </mxCell>
        <mxCell id="ZaVdI7RqOpJW4HI1exJX-34" value="Tag: 1.1.1" style="text;html=1;strokeColor=none;fillColor=none;align=center;verticalAlign=middle;whiteSpace=wrap;overflow=hidden;fontSize=14;" vertex="1" parent="ZaVdI7RqOpJW4HI1exJX-1">
          <mxGeometry x="756.75" y="400" width="70" height="20" as="geometry" />
        </mxCell>
        <mxCell id="ZaVdI7RqOpJW4HI1exJX-35" value="Tag: 1.2.0" style="text;html=1;strokeColor=none;fillColor=none;align=center;verticalAlign=middle;whiteSpace=wrap;overflow=hidden;fontSize=14;" vertex="1" parent="ZaVdI7RqOpJW4HI1exJX-1">
          <mxGeometry x="862.25" y="320" width="70" height="20" as="geometry" />
        </mxCell>
        <mxCell id="ZaVdI7RqOpJW4HI1exJX-36" value="" style="verticalLabelPosition=bottom;verticalAlign=top;html=1;strokeWidth=4;shape=mxgraph.flowchart.on-page_reference;plain-purple;gradientColor=none;strokeColor=#000000;fillColor=#99FFCC;" vertex="1" parent="ZaVdI7RqOpJW4HI1exJX-1">
          <mxGeometry x="346.13" y="185" width="30" height="30" as="geometry" />
        </mxCell>
        <mxCell id="ZaVdI7RqOpJW4HI1exJX-37" style="edgeStyle=orthogonalEdgeStyle;curved=1;rounded=0;html=1;exitX=1;exitY=0.5;exitPerimeter=0;endArrow=none;endFill=0;jettySize=auto;orthogonalLoop=1;strokeWidth=4;fontSize=15;exitDx=0;exitDy=0;entryX=0;entryY=0.5;entryDx=0;entryDy=0;entryPerimeter=0;" edge="1" parent="ZaVdI7RqOpJW4HI1exJX-1" source="ZaVdI7RqOpJW4HI1exJX-7" target="ZaVdI7RqOpJW4HI1exJX-36">
          <mxGeometry relative="1" as="geometry">
            <mxPoint x="315" y="370" as="sourcePoint" />
            <mxPoint x="290" y="290" as="targetPoint" />
          </mxGeometry>
        </mxCell>
        <mxCell id="ZaVdI7RqOpJW4HI1exJX-38" value="main" style="text;html=1;strokeColor=none;fillColor=none;align=center;verticalAlign=middle;whiteSpace=wrap;overflow=hidden;fontSize=14;fontStyle=1;fontFamily=Courier New;" vertex="1" parent="ZaVdI7RqOpJW4HI1exJX-1">
          <mxGeometry x="100" y="360" width="50" height="20" as="geometry" />
        </mxCell>
        <mxCell id="ZaVdI7RqOpJW4HI1exJX-39" value="" style="edgeStyle=orthogonalEdgeStyle;rounded=0;html=1;jettySize=auto;orthogonalLoop=1;strokeWidth=4;endArrow=none;endFill=0;entryX=0;entryY=0.5;entryDx=0;entryDy=0;entryPerimeter=0;" edge="1" parent="ZaVdI7RqOpJW4HI1exJX-1" target="ZaVdI7RqOpJW4HI1exJX-36">
          <mxGeometry x="204.5" y="180" as="geometry">
            <mxPoint x="159.5" y="199.5" as="sourcePoint" />
            <mxPoint x="320" y="200" as="targetPoint" />
            <Array as="points">
              <mxPoint x="346" y="200" />
            </Array>
          </mxGeometry>
        </mxCell>
        <mxCell id="ZaVdI7RqOpJW4HI1exJX-40" value="" style="verticalLabelPosition=bottom;verticalAlign=top;html=1;strokeWidth=4;shape=mxgraph.flowchart.on-page_reference;plain-purple;gradientColor=none;strokeColor=#000000;" vertex="1" parent="ZaVdI7RqOpJW4HI1exJX-1">
          <mxGeometry x="349.5" y="475" width="30" height="30" as="geometry" />
        </mxCell>
        <mxCell id="ZaVdI7RqOpJW4HI1exJX-41" value="" style="verticalLabelPosition=bottom;verticalAlign=top;html=1;strokeWidth=4;shape=mxgraph.flowchart.on-page_reference;plain-purple;gradientColor=none;strokeColor=#000000;" vertex="1" parent="ZaVdI7RqOpJW4HI1exJX-1">
          <mxGeometry x="411" y="475" width="30" height="30" as="geometry" />
        </mxCell>
        <mxCell id="ZaVdI7RqOpJW4HI1exJX-42" style="edgeStyle=orthogonalEdgeStyle;rounded=0;orthogonalLoop=1;jettySize=auto;html=1;entryX=0;entryY=0.5;entryDx=0;entryDy=0;entryPerimeter=0;curved=1;endArrow=none;endFill=0;strokeWidth=4;" edge="1" parent="ZaVdI7RqOpJW4HI1exJX-1" source="ZaVdI7RqOpJW4HI1exJX-7" target="ZaVdI7RqOpJW4HI1exJX-40">
          <mxGeometry relative="1" as="geometry" />
        </mxCell>
        <mxCell id="ZaVdI7RqOpJW4HI1exJX-43" value="" style="verticalLabelPosition=bottom;verticalAlign=top;html=1;strokeWidth=4;shape=mxgraph.flowchart.on-page_reference;plain-purple;gradientColor=none;strokeColor=#000000;" vertex="1" parent="ZaVdI7RqOpJW4HI1exJX-1">
          <mxGeometry x="473" y="475" width="30" height="30" as="geometry" />
        </mxCell>
        <mxCell id="ZaVdI7RqOpJW4HI1exJX-44" value="" style="verticalLabelPosition=bottom;verticalAlign=top;html=1;strokeWidth=4;shape=mxgraph.flowchart.on-page_reference;plain-purple;gradientColor=none;strokeColor=#000000;" vertex="1" parent="ZaVdI7RqOpJW4HI1exJX-1">
          <mxGeometry x="534.5" y="475" width="30" height="30" as="geometry" />
        </mxCell>
        <mxCell id="ZaVdI7RqOpJW4HI1exJX-45" style="edgeStyle=orthogonalEdgeStyle;rounded=0;orthogonalLoop=1;jettySize=auto;html=1;entryX=0;entryY=0.5;entryDx=0;entryDy=0;entryPerimeter=0;strokeWidth=4;endArrow=none;endFill=0;" edge="1" parent="ZaVdI7RqOpJW4HI1exJX-1" source="ZaVdI7RqOpJW4HI1exJX-40" target="ZaVdI7RqOpJW4HI1exJX-41">
          <mxGeometry relative="1" as="geometry" />
        </mxCell>
        <mxCell id="ZaVdI7RqOpJW4HI1exJX-46" style="edgeStyle=orthogonalEdgeStyle;rounded=0;orthogonalLoop=1;jettySize=auto;html=1;entryX=0;entryY=0.5;entryDx=0;entryDy=0;entryPerimeter=0;strokeWidth=4;endArrow=none;endFill=0;" edge="1" parent="ZaVdI7RqOpJW4HI1exJX-1" source="ZaVdI7RqOpJW4HI1exJX-41" target="ZaVdI7RqOpJW4HI1exJX-43">
          <mxGeometry relative="1" as="geometry" />
        </mxCell>
        <mxCell id="ZaVdI7RqOpJW4HI1exJX-47" style="edgeStyle=orthogonalEdgeStyle;rounded=0;orthogonalLoop=1;jettySize=auto;html=1;entryX=0;entryY=0.5;entryDx=0;entryDy=0;entryPerimeter=0;strokeWidth=4;endArrow=none;endFill=0;" edge="1" parent="ZaVdI7RqOpJW4HI1exJX-1" source="ZaVdI7RqOpJW4HI1exJX-43" target="ZaVdI7RqOpJW4HI1exJX-44">
          <mxGeometry relative="1" as="geometry" />
        </mxCell>
        <mxCell id="ZaVdI7RqOpJW4HI1exJX-48" style="edgeStyle=orthogonalEdgeStyle;rounded=0;orthogonalLoop=1;jettySize=auto;html=1;entryX=0;entryY=0.5;entryDx=0;entryDy=0;entryPerimeter=0;curved=1;strokeWidth=4;endArrow=none;endFill=0;" edge="1" parent="ZaVdI7RqOpJW4HI1exJX-1" source="ZaVdI7RqOpJW4HI1exJX-44" target="ZaVdI7RqOpJW4HI1exJX-12">
          <mxGeometry relative="1" as="geometry" />
        </mxCell>
        <mxCell id="ZaVdI7RqOpJW4HI1exJX-49" value="" style="verticalLabelPosition=bottom;verticalAlign=top;html=1;strokeWidth=4;shape=mxgraph.flowchart.on-page_reference;plain-purple;gradientColor=none;strokeColor=#000000;fillColor=#99FFCC;" vertex="1" parent="ZaVdI7RqOpJW4HI1exJX-1">
          <mxGeometry x="687" y="184" width="30" height="30" as="geometry" />
        </mxCell>
        <mxCell id="ZaVdI7RqOpJW4HI1exJX-50" value="" style="verticalLabelPosition=bottom;verticalAlign=top;html=1;strokeWidth=4;shape=mxgraph.flowchart.on-page_reference;plain-purple;gradientColor=none;strokeColor=#000000;fillColor=#99FFCC;" vertex="1" parent="ZaVdI7RqOpJW4HI1exJX-1">
          <mxGeometry x="831" y="184" width="30" height="30" as="geometry" />
        </mxCell>
        <mxCell id="ZaVdI7RqOpJW4HI1exJX-51" style="edgeStyle=orthogonalEdgeStyle;rounded=0;orthogonalLoop=1;jettySize=auto;html=1;entryX=0;entryY=0.5;entryDx=0;entryDy=0;entryPerimeter=0;strokeWidth=4;endArrow=none;endFill=0;" edge="1" parent="ZaVdI7RqOpJW4HI1exJX-1" source="ZaVdI7RqOpJW4HI1exJX-36" target="ZaVdI7RqOpJW4HI1exJX-49">
          <mxGeometry relative="1" as="geometry" />
        </mxCell>
        <mxCell id="ZaVdI7RqOpJW4HI1exJX-52" style="edgeStyle=orthogonalEdgeStyle;rounded=0;orthogonalLoop=1;jettySize=auto;html=1;entryX=0;entryY=0.5;entryDx=0;entryDy=0;entryPerimeter=0;strokeWidth=4;endArrow=none;endFill=0;" edge="1" parent="ZaVdI7RqOpJW4HI1exJX-1" source="ZaVdI7RqOpJW4HI1exJX-49" target="ZaVdI7RqOpJW4HI1exJX-50">
          <mxGeometry relative="1" as="geometry" />
        </mxCell>
      </root>
    </mxGraphModel>
  </diagram>
</mxfile>
